<svg width="32" height="32" viewBox="0 0 32 32" fill="none" xmlns="http://www.w3.org/2000/svg">
<mask id="mask0_87_798" style="mask-type:alpha" maskUnits="userSpaceOnUse" x="0" y="0" width="32" height="32">
<rect width="32" height="32" fill="#D9D9D9"/>
</mask>
<g mask="url(#mask0_87_798)">
<path d="M14.6667 22.6667H17.3334V14.6667H14.6667V22.6667ZM16 12C16.3778 12 16.6945 11.8722 16.95 11.6167C17.2056 11.3611 17.3334 11.0444 17.3334 10.6667C17.3334 10.2889 17.2056 9.97222 16.95 9.71666C16.6945 9.46111 16.3778 9.33333 16 9.33333C15.6222 9.33333 15.3056 9.46111 15.05 9.71666C14.7945 9.97222 14.6667 10.2889 14.6667 10.6667C14.6667 11.0444 14.7945 11.3611 15.05 11.6167C15.3056 11.8722 15.6222 12 16 12ZM16 29.3333C14.1556 29.3333 12.4222 28.9833 10.8 28.2833C9.1778 27.5833 7.76669 26.6333 6.56669 25.4333C5.36669 24.2333 4.41669 22.8222 3.71669 21.2C3.01669 19.5778 2.66669 17.8444 2.66669 16C2.66669 14.1556 3.01669 12.4222 3.71669 10.8C4.41669 9.17778 5.36669 7.76666 6.56669 6.56666C7.76669 5.36666 9.1778 4.41666 10.8 3.71666C12.4222 3.01666 14.1556 2.66666 16 2.66666C17.8445 2.66666 19.5778 3.01666 21.2 3.71666C22.8222 4.41666 24.2334 5.36666 25.4334 6.56666C26.6334 7.76666 27.5834 9.17778 28.2834 10.8C28.9834 12.4222 29.3334 14.1556 29.3334 16C29.3334 17.8444 28.9834 19.5778 28.2834 21.2C27.5834 22.8222 26.6334 24.2333 25.4334 25.4333C24.2334 26.6333 22.8222 27.5833 21.2 28.2833C19.5778 28.9833 17.8445 29.3333 16 29.3333ZM16 26.6667C18.9778 26.6667 21.5 25.6333 23.5667 23.5667C25.6334 21.5 26.6667 18.9778 26.6667 16C26.6667 13.0222 25.6334 10.5 23.5667 8.43333C21.5 6.36666 18.9778 5.33333 16 5.33333C13.0222 5.33333 10.5 6.36666 8.43335 8.43333C6.36669 10.5 5.33335 13.0222 5.33335 16C5.33335 18.9778 6.36669 21.5 8.43335 23.5667C10.5 25.6333 13.0222 26.6667 16 26.6667Z" fill="#1C1B1F"/>
</g>
</svg>
